<?xml version="1.0" encoding="utf-8"?><svg xmlns="http://www.w3.org/2000/svg" xmlns:xlink="http://www.w3.org/1999/xlink"><symbol viewBox="0 0 32 32" id="fb" xmlns="http://www.w3.org/2000/svg"><path fill-rule="evenodd" clip-rule="evenodd" d="M14.578 5.246A7.667 7.667 0 0119.998 3h4a1 1 0 011 1v5.333a1 1 0 01-1 1h-4a.333.333 0 00-.333.334v1.666H24a1 1 0 01.97 1.243l-1.334 5.333a1 1 0 01-.97.758h-3V28a1 1 0 01-1 1h-5.333a1 1 0 01-1-1v-8.333h-3a1 1 0 01-1-1v-5.334a1 1 0 011-1h3v-1.666c0-2.034.808-3.984 2.245-5.421zM19.998 5a5.667 5.667 0 00-5.666 5.667v2.666a1 1 0 01-1 1h-3v3.334h3a1 1 0 011 1V27h3.333v-8.333a1 1 0 011-1h3.22l.833-3.334h-4.053a1 1 0 01-1-1v-2.666A2.333 2.333 0 0120 8.333h3V5h-3z"/></symbol><symbol viewBox="0 0 32 32" id="in" xmlns="http://www.w3.org/2000/svg"><path fill-rule="evenodd" clip-rule="evenodd" d="M7.999 6.332c-.92 0-1.667.746-1.667 1.667v16c0 .92.746 1.666 1.667 1.666h16c.92 0 1.666-.746 1.666-1.666v-16c0-.92-.746-1.667-1.666-1.667h-16zM4.332 7.999a3.667 3.667 0 013.667-3.667h16a3.667 3.667 0 013.666 3.667v16A3.667 3.667 0 0124 27.665H8A3.667 3.667 0 014.332 24V8z"/><path fill-rule="evenodd" clip-rule="evenodd" d="M10.668 13.668a1 1 0 011 1v6.667a1 1 0 11-2 0v-6.667a1 1 0 011-1zm0-4a1 1 0 011 1v.013a1 1 0 11-2 0v-.013a1 1 0 011-1zm5.332 4a1 1 0 011 1v6.667a1 1 0 11-2 0v-6.667a1 1 0 011-1z"/><path fill-rule="evenodd" clip-rule="evenodd" d="M16.074 14.742a3.667 3.667 0 016.26 2.593v4a1 1 0 11-2 0v-4a1.667 1.667 0 00-3.334 0 1 1 0 11-2 0c0-.973.386-1.905 1.074-2.593z"/></symbol><symbol viewBox="0 0 32 32" id="inst" xmlns="http://www.w3.org/2000/svg"><path fill-rule="evenodd" clip-rule="evenodd" d="M10.665 6.332a4.333 4.333 0 00-4.333 4.333v10.667a4.333 4.333 0 004.333 4.333h10.667a4.333 4.333 0 004.333-4.333V10.665a4.333 4.333 0 00-4.333-4.333H10.665zm-6.333 4.333a6.333 6.333 0 016.333-6.333h10.667a6.333 6.333 0 016.333 6.333v10.667a6.333 6.333 0 01-6.333 6.333H10.665a6.333 6.333 0 01-6.333-6.333V10.665z"/><path fill-rule="evenodd" clip-rule="evenodd" d="M16 13a3 3 0 100 6 3 3 0 000-6zm-5 3a5 5 0 1110 0 5 5 0 01-10 0zm11-7a1 1 0 011 1v.001a1 1 0 11-2 0V10a1 1 0 011-1z"/></symbol><symbol viewBox="0 0 32 32" id="tg" xmlns="http://www.w3.org/2000/svg"><path fill-rule="evenodd" clip-rule="evenodd" d="M28.661 4.582a1 1 0 01.31.993l-5.334 21.333a1 1 0 01-1.677.464l-5.852-5.85-3.308 4.41a1 1 0 01-1.749-.284l-2.535-7.607-4.963-2.481a1 1 0 01.085-1.827l24-9.333a1 1 0 011.023.182zM16.72 19.304a.963.963 0 00-.022-.023l-.616-.616 4.626-4.626a1 1 0 00-1.414-1.414l-5.333 5.333a1 1 0 000 1.415l.72.72-2.335 3.112-2.063-6.19a1 1 0 00-.501-.577L6.465 14.78 26.56 6.965l-4.436 17.744-5.406-5.405z"/></symbol><symbol viewBox="0 0 32 32" id="tik" xmlns="http://www.w3.org/2000/svg"><path fill-rule="evenodd" clip-rule="evenodd" d="M17.335 4.332a1 1 0 011 1A5.667 5.667 0 0024 10.999a1 1 0 110 2 7.666 7.666 0 01-5.666-2.503v10.836A6.333 6.333 0 1112 14.999a1 1 0 110 2 4.333 4.333 0 104.334 4.333v-16a1 1 0 011-1z"/></symbol><symbol viewBox="0 0 32 32" id="yt" xmlns="http://www.w3.org/2000/svg"><path fill-rule="evenodd" clip-rule="evenodd" d="M9.333 7.668A4.333 4.333 0 005 12.001v8a4.333 4.333 0 004.333 4.334h13.334A4.333 4.333 0 0027 20v-8a4.333 4.333 0 00-4.333-4.333H9.333zM3 12.001a6.333 6.333 0 016.333-6.333h13.334A6.333 6.333 0 0129 12.001v8a6.333 6.333 0 01-6.333 6.334H9.333A6.333 6.333 0 013 20v-8z"/><path fill-rule="evenodd" clip-rule="evenodd" d="M12.84 11.13a1 1 0 011.007.012l6.666 4a1 1 0 010 1.716l-6.667 4A1 1 0 0112.333 20v-8a1 1 0 01.507-.87zm1.492 2.636v4.468L18.055 16l-3.723-2.234z"/></symbol></svg>