<svg width="152" height="21" fill="none" xmlns="http://www.w3.org/2000/svg"><path d="M7.716 20.48c-1.488 0-2.952-.424-4.392-1.272l-2.04 1.032H.756v-6.168h.528l2.064 4.464c1.328.944 2.848 1.416 4.56 1.416 1.408 0 2.568-.368 3.48-1.104.928-.752 1.392-1.8 1.392-3.144 0-.976-.296-1.744-.888-2.304-.592-.576-1.552-1.032-2.88-1.368L5.028 11c-1.392-.368-2.44-.992-3.144-1.872C1.18 8.232.828 7.176.828 5.96c0-1.104.216-2.08.648-2.928A4.671 4.671 0 013.42 1.04C4.268.56 5.276.32 6.444.32c1.456 0 2.76.248 3.912.744L12.108.32h.528v4.896h-.528L10.38 1.712C9.18 1.136 7.876.848 6.468.848c-1.392 0-2.488.36-3.288 1.08-.8.704-1.2 1.64-1.2 2.808 0 .864.28 1.544.84 2.04.576.496 1.416.888 2.52 1.176L9.636 9.08c1.392.352 2.424.96 3.096 1.824.688.848 1.032 2.144 1.032 3.888 0 1.776-.552 3.168-1.656 4.176-1.088 1.008-2.552 1.512-4.392 1.512zm9.096-.48v-.504l2.208-.36V1.664l-2.208-.336V.8h7.056v.528l-2.208.336v7.872h9.12V1.664l-2.232-.336V.8h7.104v.528l-2.232.336v17.472l2.232.36V20h-7.104v-.504l2.232-.36v-9h-9.12v9l2.208.36V20h-7.056zm19.854 0v-.504l2.352-.96L45.954.32h.384l6.552 18.816 2.208.36V20h-7.056v-.504l1.968-.312-2.04-5.688h-6.384l-1.944 5.04 2.16.96V20h-5.136zm5.112-7.008h6.024l-2.88-8.448-3.144 8.448zm28.434 7.248c-.896 0-1.568-.216-2.016-.648-.448-.432-.752-1.168-.912-2.208l-.456-3.216c-.16-1.088-.536-1.936-1.128-2.544-.576-.624-1.48-.936-2.712-.936h-1.872v8.448l2.208.36V20h-7.056v-.504l2.208-.36V1.664l-2.208-.336V.8h6.72c2.608 0 4.496.408 5.664 1.224 1.168.816 1.752 2.056 1.752 3.72 0 2.752-1.664 4.344-4.992 4.776v.144c1.232.176 2.216.616 2.952 1.32.752.704 1.224 1.64 1.416 2.808l.312 2.064c.128.896.272 1.504.432 1.824.176.32.44.48.792.48.24 0 .496-.072.768-.216.272-.16.528-.36.768-.6l.408.432c-.464.528-.944.904-1.44 1.128a3.86 3.86 0 01-1.608.336zm-6.408-10.128c1.168 0 2.072-.352 2.712-1.056.656-.72.984-1.776.984-3.168v-.504c0-2.656-1.504-3.984-4.512-3.984h-1.872v8.712h2.688zM74.425 20v-.504l2.209-.36V1.664l-2.209-.336V.8h14.449v5.496h-.648L86.376 1.4h-7.103v8.64h3.12l1.415-3.48h.624v7.584h-.624l-1.44-3.528h-3.096v8.808h7.537l1.968-5.28h.623V20H74.427zm26.057.48c-2.592 0-4.528-.512-5.808-1.536-1.264-1.04-1.896-2.432-1.896-4.176 0-1.68.608-2.976 1.824-3.888 1.232-.928 2.84-1.44 4.824-1.536v-.072c-1.984-.256-3.456-.728-4.416-1.416-.944-.704-1.416-1.816-1.416-3.336 0-1.344.536-2.376 1.608-3.096C96.29.688 97.802.32 99.738.32c1.296 0 2.376.312 3.24.936.88.624 1.32 1.456 1.32 2.496 0 .528-.152.944-.456 1.248a1.382 1.382 0 01-1.008.432c-.4 0-.736-.12-1.008-.36s-.408-.592-.408-1.056c.672-.304 1.008-.808 1.008-1.512 0-.496-.216-.888-.648-1.176-.432-.304-1.024-.456-1.776-.456-1.088 0-1.96.32-2.616.96-.64.64-.96 1.496-.96 2.568 0 1.536.448 2.672 1.344 3.408.912.72 2.24 1.128 3.984 1.224v.528c-1.888.112-3.312.608-4.272 1.488-.944.88-1.416 2.12-1.416 3.72 0 1.072.2 2 .6 2.784.416.768.968 1.36 1.656 1.776.704.4 1.488.6 2.352.6 1.296 0 2.352-.392 3.168-1.176.816-.8 1.224-1.944 1.224-3.432a7.5 7.5 0 00-.264-1.896l-.936-.144c-.72-.144-1.288-.216-1.704-.216-.688 0-1.264.104-1.728.312-.448.208-.672.544-.672 1.008 0 .224.072.392.216.504a.871.871 0 00.552.168c.208 0 .416-.056.624-.168a1.02 1.02 0 00.456-.48c.384.096.672.264.864.504.208.224.312.496.312.816 0 .384-.144.72-.432 1.008a1.359 1.359 0 01-1.032.432c-.608 0-1.112-.264-1.512-.792-.4-.528-.6-1.176-.6-1.944 0-.624.152-1.2.456-1.728a3.21 3.21 0 011.32-1.248c.592-.32 1.28-.48 2.064-.48.768 0 1.664.08 2.688.24.8.144 1.472.216 2.016.216.752 0 1.352-.112 1.8-.336.464-.24.696-.568.696-.984 0-.224-.072-.392-.216-.504-.128-.128-.304-.192-.528-.192-.224 0-.44.056-.648.168-.192.112-.336.28-.432.504-.4-.096-.696-.256-.888-.48a1.305 1.305 0 01-.288-.84 1.436 1.436 0 011.464-1.44c.608 0 1.096.24 1.464.72.384.464.576 1.064.576 1.8 0 2.512-1.2 3.768-3.6 3.768-.688 0-1.256-.032-1.704-.096.128.64.192 1.224.192 1.752 0 1.648-.464 2.928-1.392 3.84-.928.912-2.184 1.368-3.768 1.368zm21.415 0c-1.744 0-3.272-.424-4.584-1.272-1.312-.848-2.328-2.032-3.048-3.552-.704-1.52-1.056-3.272-1.056-5.256 0-1.984.376-3.736 1.128-5.256.752-1.52 1.8-2.704 3.144-3.552 1.36-.848 2.912-1.272 4.656-1.272 1.648 0 3.04.416 4.176 1.248L127.777.32h.504v5.952h-.504l-1.584-3.96c-1.152-.96-2.504-1.44-4.056-1.44-1.12 0-2.128.288-3.024.864-.88.576-1.576 1.416-2.088 2.52-.496 1.104-.744 2.416-.744 3.936v4.392c0 1.52.232 2.832.696 3.936.48 1.104 1.136 1.952 1.968 2.544.848.576 1.832.864 2.952.864 1.376 0 2.44-.424 3.192-1.272.768-.848 1.152-1.984 1.152-3.408v-2.232l-2.232-.336v-.528h7.176v.528l-2.232.336v2.232a4.79 4.79 0 01-.744 2.568c-.496.784-1.272 1.424-2.328 1.92-1.056.496-2.384.744-3.984.744zm20.604 0c-1.744 0-3.304-.424-4.68-1.272-1.376-.848-2.448-2.032-3.216-3.552-.768-1.536-1.152-3.288-1.152-5.256 0-1.968.384-3.712 1.152-5.232.768-1.536 1.84-2.728 3.216-3.576 1.376-.848 2.936-1.272 4.68-1.272 1.744 0 3.304.424 4.68 1.272 1.376.848 2.448 2.04 3.216 3.576.768 1.52 1.152 3.264 1.152 5.232 0 1.968-.384 3.72-1.152 5.256-.768 1.52-1.84 2.704-3.216 3.552-1.376.848-2.936 1.272-4.68 1.272zm0-.552c1.152 0 2.184-.304 3.096-.912.928-.608 1.656-1.488 2.184-2.64.528-1.168.792-2.544.792-4.128V8.552c0-1.584-.264-2.952-.792-4.104-.528-1.168-1.256-2.056-2.184-2.664-.912-.608-1.944-.912-3.096-.912-1.168 0-2.208.304-3.12.912-.912.608-1.632 1.496-2.16 2.664-.528 1.152-.792 2.52-.792 4.104v3.696c0 1.584.264 2.96.792 4.128.528 1.152 1.248 2.032 2.16 2.64.912.608 1.952.912 3.12.912z" fill="#fff"/></svg>